<?xml version="1.0" encoding="UTF-8"?><svg id="uuid-ad9460fb-415f-4c40-a1a8-7af69d8edfe0" xmlns="http://www.w3.org/2000/svg" viewBox="0 0 12.63 8.1"><path d="M0,6.69l1.2-.89c.29.54.69.78,1.09.78.63,0,.97-.32.97-1.37V.14h1.77v5.22c0,1.5-.78,2.74-2.51,2.74-1.2,0-1.98-.47-2.52-1.41Z" style="fill:#fff;"/><path d="M6.47,4.1c0-2.59,1.71-4.1,3.69-4.1,1.01,0,1.82.48,2.35,1.01l-.93,1.13c-.39-.37-.81-.62-1.38-.62-1.07,0-1.92.95-1.92,2.51s.75,2.54,1.89,2.54c.64,0,1.15-.32,1.53-.73l.93,1.11c-.65.75-1.51,1.15-2.52,1.15-1.98,0-3.64-1.38-3.64-4.01Z" style="fill:#fff;"/></svg>